<?xml version="1.0" encoding="UTF-8" standalone="no"?>
<svg
   xmlns:dc="http://purl.org/dc/elements/1.1/"
   xmlns:cc="http://creativecommons.org/ns#"
   xmlns:rdf="http://www.w3.org/1999/02/22-rdf-syntax-ns#"
   xmlns:svg="http://www.w3.org/2000/svg"
   xmlns:xlink="http://www.w3.org/1999/xlink"
   xmlns="http://www.w3.org/2000/svg"
   viewBox="0 0 56.221874 16.1255"
   height="16.1255"
   width="56.221874"
   xml:space="preserve"
   version="1.1"
   id="svg2"><metadata
     id="metadata8"><rdf:RDF><cc:Work
         rdf:about=""><dc:format>image/svg+xml</dc:format><dc:type
           rdf:resource="http://purl.org/dc/dcmitype/StillImage" /><dc:title></dc:title></cc:Work></rdf:RDF></metadata><defs
     id="defs6"><clipPath
       id="clipPath16"
       clipPathUnits="userSpaceOnUse"><path
         id="path18"
         d="m 0,12.9 44.978,0 0,-12.9 L 0,0 0,12.9 Z" /></clipPath></defs><g
     transform="matrix(1.25,0,0,-1.25,0,16.1255)"
     id="g10"><g
       style="fill:#826550;fill-opacity:1"
       id="g12"><g
         style="fill:#826550;fill-opacity:1"
         clip-path="url(#clipPath16)"
         id="g14"><g
           style="fill:#826550;fill-opacity:1"
           transform="translate(22.4883,4.6602)"
           id="g20"><path
             id="path22"
             style="fill:#826550;fill-opacity:1;fill-rule:nonzero;stroke:none"
             d="M 0,0 C 1.151,-1.709 3.639,-4.447 8.78,-4.65 15.941,-4.927 22.489,0.567 22.489,2.631 19.731,0.137 15.122,-0.086 12.559,0.936 8.78,2.444 9.438,5.43 6.685,7.383 5.122,8.493 2.9,8.559 0.997,7.383 0.656,7.17 0.312,6.898 0,6.572 -0.312,6.898 -0.655,7.171 -0.997,7.383 -2.9,8.559 -5.122,8.493 -6.686,7.383 -9.438,5.43 -8.78,2.445 -12.559,0.936 c -2.563,-1.023 -7.171,-0.799 -9.929,1.695 0,-2.064 6.547,-7.558 13.709,-7.281 C -3.637,-4.447 -1.151,-1.709 0,0" /></g></g></g></g></svg>