<?xml version="1.0" encoding="UTF-8" standalone="no"?>
<svg
   xmlns:dc="http://purl.org/dc/elements/1.1/"
   xmlns:cc="http://creativecommons.org/ns#"
   xmlns:rdf="http://www.w3.org/1999/02/22-rdf-syntax-ns#"
   xmlns:svg="http://www.w3.org/2000/svg"
   xmlns="http://www.w3.org/2000/svg"
   viewBox="0 0 282.26624 37.5495"
   height="37.5495"
   width="282.26624"
   xml:space="preserve"
   version="1.1"
   id="svg3608"><metadata
     id="metadata3614"><rdf:RDF><cc:Work
         rdf:about=""><dc:format>image/svg+xml</dc:format><dc:type
           rdf:resource="http://purl.org/dc/dcmitype/StillImage" /><dc:title></dc:title></cc:Work></rdf:RDF></metadata><defs
     id="defs3612"><clipPath
       id="clipPath3634"
       clipPathUnits="userSpaceOnUse"><path
         id="path3636"
         d="m 0,30.04 225.813,0 0,-30.04 L 0,0 0,30.04 Z" /></clipPath></defs><g
     transform="matrix(1.25,0,0,-1.25,0,37.5495)"
     id="g3616"><g
       transform="translate(0,16.8669)"
       id="g3618"><path
         id="path3620"
         style="fill:#ffffff;fill-opacity:1;fill-rule:nonzero;stroke:none"
         d="M 0,0 3.494,-3.494 6.988,0 3.494,3.494 0,0 Z" /></g><g
       transform="translate(222.1143,16.8564)"
       id="g3622"><path
         id="path3624"
         style="fill:#ffffff;fill-opacity:1;fill-rule:nonzero;stroke:none"
         d="M 0,0 -3.493,-3.493 -6.988,0.001 -3.495,3.495 0,0 Z" /></g><g
       transform="translate(28.6025,16.7427)"
       id="g3626"><path
         id="path3628"
         style="fill:#636466;fill-opacity:1;fill-rule:nonzero;stroke:none"
         d="m 0,0 1.273,0 0,5.088 2.002,0 0,1.273 L 0,6.361 0,0 Z" /></g><g
       id="g3630"><g
         clip-path="url(#clipPath3634)"
         id="g3632"><g
           transform="translate(37.7061,15.8086)"
           id="g3638"><path
             id="path3640"
             style="fill:#636466;fill-opacity:1;fill-rule:nonzero;stroke:none"
             d="M 0,0 0,7.753 C 0,8.85 -0.653,9.785 -1.567,10.24 -1.386,9.872 -1.274,9.464 -1.274,9.027 l 0,-7.753 c 0,-0.865 -0.375,-1.619 -1.016,-2.146 0.563,-0.603 1.016,-1.28 1.016,-2.259 l 0,-8.619 c 0,-1.505 -1.28,-2.785 -2.786,-2.785 l -8.287,0 0,-1.274 9.562,0 c 1.505,0 2.785,1.28 2.785,2.786 l 0,8.619 c 0,0.978 -0.451,1.656 -1.017,2.259 C -0.377,-1.619 0,-0.866 0,0" /></g><g
           transform="translate(28.6025,5.8281)"
           id="g3642"><path
             id="path3644"
             style="fill:#636466;fill-opacity:1;fill-rule:nonzero;stroke:none"
             d="m 0,0 1.273,0 0,5.125 2.002,0 0,1.273 L 0,6.398 0,0 Z" /></g><g
           transform="translate(48.7783,5.8281)"
           id="g3646"><path
             id="path3648"
             style="fill:#636466;fill-opacity:1;fill-rule:nonzero;stroke:none"
             d="m 0,0 1.273,0 0,16.002 2.002,0 0,1.273 L 0,17.275 0,0 Z" /></g><g
           transform="translate(56.3135,26.0483)"
           id="g3650"><path
             id="path3652"
             style="fill:#636466;fill-opacity:1;fill-rule:nonzero;stroke:none"
             d="m 0,0 c 0.184,-0.368 0.294,-0.776 0.294,-1.213 l 0,-20.777 c 0,-1.505 -1.279,-2.785 -2.785,-2.785 l -6.774,0 c -0.438,0 -0.846,0.112 -1.214,0.295 0.455,-0.916 1.389,-1.568 2.486,-1.568 l 6.775,0 c 1.505,0 2.785,1.279 2.785,2.785 l 0,20.776 C 1.567,-1.39 0.915,-0.455 0,0" /></g><g
           transform="translate(68.9541,16.7427)"
           id="g3654"><path
             id="path3656"
             style="fill:#636466;fill-opacity:1;fill-rule:nonzero;stroke:none"
             d="m 0,0 1.273,0 0,5.088 2.001,0 0,1.273 L 0,6.361 0,0 Z" /></g><g
           transform="translate(76.4385,11.2168)"
           id="g3658"><path
             id="path3660"
             style="fill:#636466;fill-opacity:1;fill-rule:nonzero;stroke:none"
             d="m 0,0 c 0.979,0.451 1.58,1.43 1.58,2.484 l 0,9.861 c 0,1.11 -0.646,2.056 -1.567,2.504 0.182,-0.372 0.295,-0.786 0.295,-1.231 l 0,-9.861 c 0,-1.054 -0.604,-2.033 -1.581,-2.484 l 1.881,-11.217 -3.458,0 0.214,-1.273 4.517,0 L 0,0 Z" /></g><g
           transform="translate(70.6855,12.2266)"
           id="g3662"><path
             id="path3664"
             style="fill:#636466;fill-opacity:1;fill-rule:nonzero;stroke:none"
             d="m 0,0 -1.731,0 0,-10.954 -3.244,0 0,-1.273 4.517,0 0,10.954 0.672,0 L 0,0 Z" /></g><g
           transform="translate(88.5273,5.8281)"
           id="g3666"><path
             id="path3668"
             style="fill:#636466;fill-opacity:1;fill-rule:nonzero;stroke:none"
             d="m 0,0 1.274,0 0,16.002 2.002,0 0,1.273 L 0,17.275 0,0 Z" /></g><g
           transform="translate(96.0635,26.0483)"
           id="g3670"><path
             id="path3672"
             style="fill:#636466;fill-opacity:1;fill-rule:nonzero;stroke:none"
             d="m 0,0 c 0.183,-0.368 0.293,-0.776 0.293,-1.213 l 0,-20.777 c 0,-1.505 -1.278,-2.785 -2.785,-2.785 l -6.776,0 c -0.437,0 -0.845,0.112 -1.212,0.294 0.454,-0.915 1.388,-1.567 2.485,-1.567 l 6.775,0 c 1.505,0 2.785,1.279 2.785,2.785 l 0,20.776 C 1.567,-1.39 0.914,-0.455 0,0" /></g><g
           transform="translate(108.7041,5.8281)"
           id="g3674"><path
             id="path3676"
             style="fill:#636466;fill-opacity:1;fill-rule:nonzero;stroke:none"
             d="m 0,0 1.272,0 0,16.002 2.002,0 0,1.273 L 0,17.275 0,0 Z" /></g><g
           transform="translate(116.2393,26.0483)"
           id="g3678"><path
             id="path3680"
             style="fill:#636466;fill-opacity:1;fill-rule:nonzero;stroke:none"
             d="m 0,0 c 0.182,-0.368 0.294,-0.776 0.294,-1.213 l 0,-20.777 c 0,-1.505 -1.28,-2.785 -2.785,-2.785 l -8.288,0 0,-1.273 9.56,0 c 1.505,0 2.784,1.279 2.784,2.785 l 0,20.776 C 1.566,-1.39 0.914,-0.455 0,0" /></g><g
           transform="translate(129.1055,26.3467)"
           id="g3682"><path
             id="path3684"
             style="fill:#636466;fill-opacity:1;fill-rule:nonzero;stroke:none"
             d="m 0,0 0,-25.074 -3.244,0 0,-1.273 4.517,0 L 1.273,0 0,0 Z" /></g><g
           transform="translate(149.2061,26.3467)"
           id="g3686"><path
             id="path3688"
             style="fill:#636466;fill-opacity:1;fill-rule:nonzero;stroke:none"
             d="m 0,0 0,-25.074 -3.61,0 0.366,-1.273 4.516,0 L 1.272,0 0,0 Z" /></g><g
           transform="translate(141.376,12.791)"
           id="g3690"><path
             id="path3692"
             style="fill:#636466;fill-opacity:1;fill-rule:nonzero;stroke:none"
             d="m 0,0 0,-11.519 -3.242,0 0,-1.272 4.514,0 0,8.363 L 0,0 Z" /></g><g
           transform="translate(161.0947,10.9531)"
           id="g3694"><path
             id="path3696"
             style="fill:#636466;fill-opacity:1;fill-rule:nonzero;stroke:none"
             d="m 0,0 3.732,0 0,1.272 -5.006,0 c -0.441,0 -0.853,0.109 -1.222,0.291 C -2.043,0.64 -1.104,0 0,0" /></g><g
           transform="translate(162.8242,9.2598)"
           id="g3698"><path
             id="path3700"
             style="fill:#636466;fill-opacity:1;fill-rule:nonzero;stroke:none"
             d="m 0,0 -1.271,-0.297 0,-3.135 1.271,0 L 0,0 Z" /></g><g
           transform="translate(169.0869,26.0483)"
           id="g3702"><path
             id="path3704"
             style="fill:#636466;fill-opacity:1;fill-rule:nonzero;stroke:none"
             d="m 0,0 c 0.183,-0.368 0.294,-0.776 0.294,-1.213 l 0,-5.345 -3.281,-0.759 0,-1.568 4.554,1.054 0,5.344 C 1.566,-1.39 0.915,-0.455 0,0" /></g><g
           transform="translate(169.0869,15.1704)"
           id="g3706"><path
             id="path3708"
             style="fill:#636466;fill-opacity:1;fill-rule:nonzero;stroke:none"
             d="m 0,0 c 0.183,-0.368 0.294,-0.776 0.294,-1.213 l 0,-9.899 c 0,-1.505 -1.279,-2.785 -2.785,-2.785 l -6.775,0 c -0.437,0 -0.846,0.112 -1.214,0.295 0.454,-0.916 1.39,-1.568 2.488,-1.568 l 6.774,0 c 1.506,0 2.784,1.279 2.784,2.785 l 0,9.9 C 1.566,-1.389 0.916,-0.455 0,0" /></g><g
           transform="translate(161.5527,23.1035)"
           id="g3710"><path
             id="path3712"
             style="fill:#636466;fill-opacity:1;fill-rule:nonzero;stroke:none"
             d="m 0,0 0,-6.361 1.271,0 0,5.088 2.003,0 L 3.274,0 0,0 Z" /></g><g
           transform="translate(182.1426,12.2266)"
           id="g3714"><path
             id="path3716"
             style="fill:#636466;fill-opacity:1;fill-rule:nonzero;stroke:none"
             d="m 0,0 -0.414,0 0,-10.954 -3.245,0 0,-1.273 4.518,0 0,9.489 L 0,0 Z" /></g><g
           transform="translate(191.3945,26.3467)"
           id="g3718"><path
             id="path3720"
             style="fill:#636466;fill-opacity:1;fill-rule:nonzero;stroke:none"
             d="m 0,0 -1.682,0 -3.807,-11.862 4.216,-13.212 -3.67,0 0.351,-1.123 0.038,-0.15 4.554,0 -4.215,13.211 L 0,0 Z" /></g><g
           transform="translate(202.0166,26.3467)"
           id="g3722"><path
             id="path3724"
             style="fill:#636466;fill-opacity:1;fill-rule:nonzero;stroke:none"
             d="m 0,0 0,-25.074 -3.244,0 0,-1.273 4.517,0 L 1.273,0 0,0 Z" /></g><g
           transform="translate(221.0469,10.9512)"
           id="g3726"><path
             id="path3728"
             style="fill:#636466;fill-opacity:1;fill-rule:nonzero;stroke:none"
             d="M 0,0 3.493,3.494 4.767,2.222 1.273,-1.272 0,0 Z" /></g><g
           transform="translate(5.915,10.9531)"
           id="g3730"><path
             id="path3732"
             style="fill:#636466;fill-opacity:1;fill-rule:nonzero;stroke:none"
             d="M 0,0 3.494,3.494 4.768,2.221 1.273,-1.273 0,0 Z" /></g><path
           id="path3734"
           style="fill:#ffffff;fill-opacity:1;fill-rule:nonzero;stroke:none"
           d="m 29.459,14.645 -3.275,0 0,-6.398 3.275,0 0,6.398 z m 0,10.878 -3.275,0 0,-6.361 3.275,0 0,6.361 z M 34.013,19.5 c 0,-0.865 -0.376,-1.619 -1.016,-2.146 0.564,-0.602 1.016,-1.278 1.016,-2.256 l 0,-8.62 c 0,-1.506 -1.281,-2.786 -2.785,-2.786 l -9.56,0 0,26.348 9.56,0 c 1.504,0 2.785,-1.243 2.785,-2.787 l 0,-7.753 z" /><path
           id="path3736"
           style="fill:#ffffff;fill-opacity:1;fill-rule:nonzero;stroke:none"
           d="m 49.634,25.523 -3.275,0 0,-17.277 3.275,0 0,17.277 z m 1.768,4.517 c 1.506,0 2.786,-1.243 2.786,-2.787 l 0,-20.775 c 0,-1.506 -1.28,-2.786 -2.786,-2.786 l -6.774,0 c -1.543,0 -2.786,1.28 -2.786,2.786 l 0,20.775 c 0.001,1.544 1.243,2.787 2.786,2.787 l 6.774,0 z" /><path
           id="path3738"
           style="fill:#ffffff;fill-opacity:1;fill-rule:nonzero;stroke:none"
           d="m 69.81,25.523 -3.274,0 0,-6.361 3.274,0 0,6.361 z m 0.3,-21.831 -1.844,10.953 -1.732,0 0,-10.953 -4.516,0 0,26.348 9.561,0 c 1.505,0 2.748,-1.243 2.748,-2.787 l 0,-9.86 c 0,-1.055 -0.603,-2.033 -1.581,-2.484 l 1.882,-11.217 -4.518,0 z" /><path
           id="path3740"
           style="fill:#ffffff;fill-opacity:1;fill-rule:nonzero;stroke:none"
           d="m 89.384,25.523 -3.275,0 0,-17.277 3.275,0 0,17.277 z m 1.768,4.517 c 1.506,0 2.785,-1.243 2.785,-2.787 l 0,-20.775 c 0,-1.506 -1.279,-2.786 -2.785,-2.786 l -6.774,0 c -1.543,0 -2.785,1.28 -2.785,2.786 l 0,20.775 c 0,1.544 1.242,2.787 2.785,2.787 l 6.774,0 z" /><path
           id="path3742"
           style="fill:#ffffff;fill-opacity:1;fill-rule:nonzero;stroke:none"
           d="m 109.559,25.523 -3.274,0 0,-17.277 3.274,0 0,17.277 z m 1.77,4.517 c 1.505,0 2.784,-1.243 2.784,-2.787 l 0,-20.775 c 0,-1.506 -1.278,-2.786 -2.784,-2.786 l -9.561,0 0,26.348 9.561,0 z" /><path
           id="path3744"
           style="fill:#ffffff;fill-opacity:1;fill-rule:nonzero;stroke:none"
           d="m 122.17,30.04 4.517,0 0,-26.347 -4.517,0 0,26.347 z" /><g
           transform="translate(146.7852,30.0396)"
           id="g3746"><path
             id="path3748"
             style="fill:#ffffff;fill-opacity:1;fill-rule:nonzero;stroke:none"
             d="m 0,0 0,-26.347 -4.517,0 -3.311,11.517 0,-11.517 -4.518,0 0,26.347 4.48,0 3.311,-10.803 L -4.555,0 0,0 Z" /></g><g
           transform="translate(164.1768,19.1626)"
           id="g3750"><path
             id="path3752"
             style="fill:#ffffff;fill-opacity:1;fill-rule:nonzero;stroke:none"
             d="m 0,0 c 1.504,0 2.785,-1.242 2.785,-2.785 l 0,-9.899 c 0,-1.506 -1.281,-2.785 -2.785,-2.785 l -6.776,0 c -1.544,0 -2.785,1.279 -2.785,2.785 l 0,5.42 4.516,1.055 0,-4.706 3.274,0 0,6.398 -5.005,0 c -1.544,0 -2.785,1.243 -2.785,2.786 l 0,9.822 c 0,1.543 1.241,2.786 2.785,2.786 l 6.775,0 c 1.504,0 2.785,-1.242 2.785,-2.786 l 0,-5.344 -4.555,-1.054 0,4.668 -3.275,0 L -5.046,0 0,0 Z" /></g><g
           transform="translate(183.4854,16.9038)"
           id="g3754"><path
             id="path3756"
             style="fill:#ffffff;fill-opacity:1;fill-rule:nonzero;stroke:none"
             d="m 0,0 4.217,-13.21 -4.555,0 -0.038,0.15 -3.388,10.802 -0.415,0 0,-10.952 -4.515,0 0,26.346 4.515,0 0,-10.877 0.34,0 3.463,10.877 4.593,0 L 0,0 Z" /></g><path
           id="path3758"
           style="fill:#ffffff;fill-opacity:1;fill-rule:nonzero;stroke:none"
           d="m 195.081,30.04 4.516,0 0,-26.347 -4.516,0 0,26.347 z" /></g></g></g></svg>