<?xml version="1.0" encoding="UTF-8" standalone="no"?>
<svg
   xmlns:dc="http://purl.org/dc/elements/1.1/"
   xmlns:cc="http://creativecommons.org/ns#"
   xmlns:rdf="http://www.w3.org/1999/02/22-rdf-syntax-ns#"
   xmlns:svg="http://www.w3.org/2000/svg"
   xmlns="http://www.w3.org/2000/svg"
   viewBox="0 0 461.82126 191.31"
   height="191.31"
   width="461.82126"
   xml:space="preserve"
   version="1.1"
   id="svg3390"><metadata
     id="metadata3396"><rdf:RDF><cc:Work
         rdf:about=""><dc:format>image/svg+xml</dc:format><dc:type
           rdf:resource="http://purl.org/dc/dcmitype/StillImage" /><dc:title></dc:title></cc:Work></rdf:RDF></metadata><defs
     id="defs3394"><clipPath
       id="clipPath3404"
       clipPathUnits="userSpaceOnUse"><path
         id="path3406"
         d="m 0,153.048 369.457,0 L 369.457,0 0,0 0,153.048 Z" /></clipPath></defs><g
     style="display:inline"
     transform="matrix(1.25,0,0,-1.25,0,191.31)"
     id="g3398"><g
       id="g3400"><g
         clip-path="url(#clipPath3404)"
         id="g3402"><g
           transform="translate(114.8945,143.2627)"
           id="g3408"><path
             id="path3410"
             style="fill:#ffffff;fill-opacity:1;fill-rule:nonzero;stroke:none"
             d="M 0,0 2.873,4.927 C 5.474,9.409 8.792,6.774 7.013,3.422 5.645,0.855 3.626,0.069 0,0 m -3.832,-16.217 c -2.121,0 -3.799,0.479 -5.131,1.232 0.613,0.718 1.231,1.607 1.777,2.532 l 5.987,10.367 0.958,-0.103 C 8.107,-3.935 4.79,-16.217 -3.832,-16.217 M 4.96,-1.642 c 7.186,2.429 7.732,11.427 0.65,11.427 -1.948,0 -4.275,-1.369 -5.883,-4.174 l -9.58,-16.559 c -0.444,-0.787 -0.89,-1.437 -1.369,-2.019 -2.464,3.387 -1.743,8.451 1.711,10.674 l -1.437,1.813 c -7.458,-4.755 -5.269,-18.475 7.184,-18.475 10.641,10e-4 15.567,12.763 8.724,17.313" /></g><g
           transform="translate(236.1807,133.854)"
           id="g3412"><path
             id="path3414"
             style="fill:#ffffff;fill-opacity:1;fill-rule:nonzero;stroke:none"
             d="m 0,0 -0.17,0 c -1.163,0 -2.089,-0.958 -2.089,-2.121 0,-0.445 0.138,-0.855 0.343,-1.198 L -1.95,-3.387 c -1.676,-2.873 -5.747,-2.326 -3.626,1.369 l 2.703,4.688 1.71,2.908 C 1.334,9.82 4.756,8.144 2.601,4.449 L 0,0 Z m -73.08,-1.778 c -0.923,0.684 -1.506,1.778 -1.506,3.216 0,2.532 2.465,6.671 4.482,6.671 0.787,0 1.334,-0.582 1.334,-1.54 0,-0.581 -0.205,-1.3 -0.684,-2.121 l -3.626,-6.226 z m -3.729,-3.456 c -0.788,0 -1.437,0.479 -1.437,1.369 0,0.513 0.206,1.094 0.617,1.847 l 1.266,2.189 c 0.274,-1.539 0.958,-2.874 2.258,-3.694 -0.719,-1.163 -1.813,-1.711 -2.704,-1.711 m -26.788,4.858 c -2.155,-3.386 -4.277,-4.995 -5.749,-4.995 -0.787,0 -1.23,0.547 -0.41,1.95 l 4.963,8.655 c 1.915,3.319 5.712,2.463 3.968,-0.752 l -2.772,-4.858 z m 45.606,5.611 c 2.053,3.524 5.678,2.942 3.557,-0.752 l -0.512,-0.89 c -1.711,-2.908 -4.004,-2.84 -5.337,-2.361 l 2.292,4.003 z M 23.024,0.24 22.787,-0.034 c -1.985,-2.326 -4.347,-4.243 -6.502,-4.995 0.581,0.924 1.027,1.916 1.472,2.669 l 3.934,6.739 c 3.32,5.645 -2.052,7.527 -5.679,4.276 l 0.718,1.233 -3.558,0 L 7.608,0.233 C 7.604,0.235 7.6,0.237 7.597,0.239 L 7.356,-0.035 C 5.749,-1.78 3.764,-2.635 1.985,-2.669 l 3.354,5.781 c 2.155,3.729 0.172,7.253 -3.183,7.253 -2.736,0 -4.856,-1.095 -6.91,-4.654 L -6.499,2.667 -7.951,0.181 -8.142,-0.036 c -2.565,-2.977 -5.062,-5.337 -6.637,-5.337 -0.787,0 -1.231,0.547 -0.411,1.95 l 5.132,8.998 c 1.539,2.703 0.07,4.653 -1.916,4.653 -1.539,0 -3.182,-0.855 -4.961,-2.704 l 5.68,9.888 -3.558,0 -9.923,-17.215 -0.204,-0.233 c -1.299,-1.54 -2.874,-2.908 -4.278,-3.866 1.132,3.387 0.893,8.587 3.08,13.137 l -2.669,1.438 c -1.47,-2.02 -4.685,-6.672 -7.902,-10.435 l -0.239,-0.274 c -2.566,-2.977 -5.065,-5.337 -6.637,-5.337 -0.787,0 -1.232,0.547 -0.411,1.95 l 3.558,6.227 c 1.232,2.155 0.65,3.421 -0.513,4.824 l -1.985,2.394 c -0.513,0.651 -0.513,1.369 0.205,2.053 l -1.847,2.019 c -2.02,-1.813 -2.19,-3.832 -0.924,-5.474 l 0.308,-0.411 c -1.574,-2.223 -3.695,-5.234 -6.021,-7.971 l -0.238,-0.274 c -2.567,-2.977 -5.852,-5.337 -8.349,-5.337 -2.189,0 -3.489,1.368 -1.847,4.242 l 0.341,0.616 c 2.292,-0.958 6.605,-0.512 9.273,4.105 l 0.513,0.89 c 1.916,3.284 0.068,5.748 -2.841,5.748 -2.872,0 -5.165,-1.505 -6.671,-4.106 l -3.447,-5.915 -0.214,-0.244 c -1.608,-1.779 -3.626,-2.6 -5.371,-2.634 l 3.354,5.781 c 0.89,1.574 1.333,2.942 1.333,4.071 0,1.813 -1.23,3.182 -3.217,3.182 -0.853,0 -1.607,-0.308 -2.326,-0.787 l 4.518,7.835 -3.627,0 -9.975,-17.234 -0.187,-0.214 c -2.567,-2.977 -5.063,-5.337 -6.638,-5.337 -0.786,0 -1.232,0.547 -0.41,1.95 l 3.557,6.227 c 1.232,2.155 0.65,3.421 -0.512,4.824 l -1.985,2.394 c -0.513,0.651 -0.513,1.369 0.205,2.053 l -1.846,2.019 c -2.021,-1.813 -2.191,-3.832 -0.925,-5.474 l 0.309,-0.411 c -1.575,-2.223 -3.696,-5.234 -6.021,-7.971 l -0.239,-0.274 c -2.567,-2.977 -5.064,-5.337 -6.637,-5.337 -0.788,0 -1.233,0.547 -0.412,1.95 l 5.749,10.058 -2.021,0 c 0.138,1.506 -1.401,3.593 -3.728,3.593 -1.916,0 -4.583,-1.505 -6.09,-4.106 l -4.994,-8.621 c -1.507,-2.635 -0.444,-5.064 2.429,-5.064 1.436,0 3.215,0.924 4.926,2.327 0.171,-1.369 1.267,-2.327 3.08,-2.327 2.941,0 6.329,3.147 9.272,6.569 1.711,1.984 3.045,3.763 5.885,7.629 l 0.478,-0.582 c 0.445,-0.582 0.615,-1.3 0.205,-2.018 l -3.763,-6.535 c -1.504,-2.635 -0.444,-5.064 2.428,-5.064 2.064,0 4.345,1.549 6.537,3.652 0,-0.008 0,-0.017 0,-0.025 0,-2.429 1.814,-3.797 4.106,-3.797 1.981,0 4.275,1.026 6.056,3.318 0.271,-0.034 0.511,-0.034 0.786,-0.034 1.321,0 3.118,0.504 4.724,1.404 -0.186,-2.568 1.677,-4.518 4.822,-4.518 4.037,0 8.039,3.147 10.981,6.569 1.712,1.984 3.045,3.763 5.885,7.629 l 0.478,-0.582 c 0.445,-0.582 0.616,-1.3 0.205,-2.018 l -3.763,-6.535 c -1.506,-2.635 -0.445,-5.064 2.428,-5.064 2.944,0 6.331,3.147 9.273,6.569 l -0.001,0 0.001,0 c 2.018,2.326 3.798,4.824 5.062,6.5 -1.401,-3.696 -0.649,-10.333 -4.036,-10.333 -1.196,0 -1.677,1.3 -1.677,1.3 l -2.224,-1.164 c 0,0 0.649,-2.874 3.9,-2.874 0.342,0 0.649,0.034 0.991,0.068 0.036,0 0.069,0.034 0.104,0.034 1.872,0.248 3.734,1.136 5.466,2.364 l -1.224,-2.124 3.593,0 5.404,9.408 c 5.476,6.876 7.904,5.987 6.364,3.353 l -4.619,-8.04 c -1.505,-2.635 -0.444,-5.064 2.43,-5.064 2.067,0 4.354,1.556 6.551,3.667 -0.008,-4.537 6.294,-5.422 10.145,-0.553 l 0.789,0 c 1.073,0 2.463,0.334 3.81,0.944 l -6.479,-11.242 3.592,0 10.641,18.509 c 3.968,5.406 6.467,3.421 5.543,1.813 l -5.37,-9.306 c -0.583,-1.027 -1.918,-1.334 -2.568,0 L 8.797,-4.695 c 0,0 0.649,-2.874 3.899,-2.874 l 0.206,0 c 5.166,0.103 8.553,3.182 11.461,6.569 -0.209,0.556 -0.824,1.104 -1.339,1.24" /></g><g
           transform="translate(11.4326,79.772)"
           id="g3416"><path
             id="path3418"
             style="fill:#ffffff;fill-opacity:1;fill-rule:nonzero;stroke:none"
             d="M 0,0 -5.718,-5.715 -11.433,0.001 -5.716,5.717 0,0 Z" /></g><g
           transform="translate(363.4209,79.7881)"
           id="g3420"><path
             id="path3422"
             style="fill:#ffffff;fill-opacity:1;fill-rule:nonzero;stroke:none"
             d="M 0,0 -5.717,-5.716 -11.433,0.002 -5.716,5.717 0,0 Z" /></g><g
           transform="translate(46.7949,79.5679)"
           id="g3424"><path
             id="path3426"
             style="fill:#636466;fill-opacity:1;fill-rule:nonzero;stroke:none"
             d="m 0,0 2.083,0 0,8.324 3.275,0 0,2.084 L 0,10.408 0,0 Z" /></g><g
           transform="translate(61.6875,78.0391)"
           id="g3428"><path
             id="path3430"
             style="fill:#636466;fill-opacity:1;fill-rule:nonzero;stroke:none"
             d="m 0,0 0,12.685 c 0,1.795 -1.067,3.325 -2.563,4.069 0.297,-0.602 0.48,-1.27 0.48,-1.986 l 0,-12.686 c 0,-1.416 -0.615,-2.648 -1.662,-3.511 0.924,-0.985 1.662,-2.094 1.662,-3.694 l 0,-14.104 c 0,-2.463 -2.094,-4.557 -4.558,-4.557 l -13.559,0 0,-2.084 15.642,0 c 2.464,0 4.558,2.094 4.558,4.557 l 0,14.105 c 0,1.602 -0.738,2.709 -1.662,3.694 C -0.615,-2.649 0,-1.416 0,0" /></g><g
           transform="translate(46.7949,61.708)"
           id="g3432"><path
             id="path3434"
             style="fill:#636466;fill-opacity:1;fill-rule:nonzero;stroke:none"
             d="m 0,0 2.083,0 0,8.385 3.275,0 0,2.084 L 0,10.469 0,0 Z" /></g><g
           transform="translate(79.8066,61.708)"
           id="g3436"><path
             id="path3438"
             style="fill:#636466;fill-opacity:1;fill-rule:nonzero;stroke:none"
             d="m 0,0 2.083,0 0,26.184 3.274,0 0,2.084 L 0,28.268 0,0 Z" /></g><g
           transform="translate(92.1357,94.7939)"
           id="g3440"><path
             id="path3442"
             style="fill:#636466;fill-opacity:1;fill-rule:nonzero;stroke:none"
             d="m 0,0 c 0.298,-0.602 0.479,-1.27 0.479,-1.986 l 0,-33.993 c 0,-2.463 -2.093,-4.558 -4.556,-4.558 l -11.084,0 c -0.718,0 -1.386,0.184 -1.987,0.479 0.744,-1.496 2.274,-2.563 4.07,-2.563 l 11.085,0 c 2.463,0 4.556,2.094 4.556,4.558 l 0,33.993 C 2.563,-2.275 1.495,-0.745 0,0" /></g><g
           transform="translate(112.8164,79.5679)"
           id="g3444"><path
             id="path3446"
             style="fill:#636466;fill-opacity:1;fill-rule:nonzero;stroke:none"
             d="m 0,0 2.083,0 0,8.324 3.276,0 0,2.084 L 0,10.408 0,0 Z" /></g><g
           transform="translate(125.0615,70.5254)"
           id="g3448"><path
             id="path3450"
             style="fill:#636466;fill-opacity:1;fill-rule:nonzero;stroke:none"
             d="m 0,0 c 1.601,0.739 2.586,2.34 2.586,4.063 l 0,16.135 c 0,1.817 -1.061,3.365 -2.566,4.098 0.298,-0.608 0.483,-1.286 0.483,-2.014 l 0,-16.135 c 0,-1.725 -0.985,-3.325 -2.586,-4.063 l 3.079,-18.353 -5.658,0 0.35,-2.084 7.392,0 L 0,0 Z" /></g><g
           transform="translate(115.6494,72.1768)"
           id="g3452"><path
             id="path3454"
             style="fill:#636466;fill-opacity:1;fill-rule:nonzero;stroke:none"
             d="m 0,0 -2.833,0 0,-17.92 -5.306,0 0,-2.084 7.389,0 0,17.92 1.101,0 L 0,0 Z" /></g><g
           transform="translate(144.8447,61.708)"
           id="g3456"><path
             id="path3458"
             style="fill:#636466;fill-opacity:1;fill-rule:nonzero;stroke:none"
             d="m 0,0 2.083,0 0,26.184 3.274,0 0,2.084 L 0,28.268 0,0 Z" /></g><g
           transform="translate(157.1729,94.7939)"
           id="g3460"><path
             id="path3462"
             style="fill:#636466;fill-opacity:1;fill-rule:nonzero;stroke:none"
             d="m 0,0 c 0.299,-0.602 0.48,-1.27 0.48,-1.986 l 0,-33.993 c 0,-2.463 -2.093,-4.558 -4.556,-4.558 l -11.086,0 c -0.717,0 -1.385,0.184 -1.985,0.479 0.743,-1.496 2.272,-2.563 4.068,-2.563 l 11.086,0 c 2.463,0 4.556,2.094 4.556,4.558 l 0,33.993 C 2.563,-2.275 1.496,-0.745 0,0" /></g><g
           transform="translate(177.8545,61.708)"
           id="g3464"><path
             id="path3466"
             style="fill:#636466;fill-opacity:1;fill-rule:nonzero;stroke:none"
             d="m 0,0 2.083,0 0,26.184 3.275,0 0,2.084 L 0,28.268 0,0 Z" /></g><g
           transform="translate(190.1846,94.7939)"
           id="g3468"><path
             id="path3470"
             style="fill:#636466;fill-opacity:1;fill-rule:nonzero;stroke:none"
             d="m 0,0 c 0.298,-0.602 0.479,-1.27 0.479,-1.986 l 0,-33.993 c 0,-2.463 -2.093,-4.558 -4.556,-4.558 l -13.561,0 0,-2.084 15.644,0 c 2.463,0 4.557,2.094 4.557,4.558 l 0,33.993 C 2.563,-2.275 1.496,-0.745 0,0" /></g><g
           transform="translate(211.2354,95.2817)"
           id="g3472"><path
             id="path3474"
             style="fill:#636466;fill-opacity:1;fill-rule:nonzero;stroke:none"
             d="m 0,0 0,-41.025 -5.306,0 0,-2.084 7.389,0 L 2.083,0 0,0 Z" /></g><g
           transform="translate(244.1221,95.2817)"
           id="g3476"><path
             id="path3478"
             style="fill:#636466;fill-opacity:1;fill-rule:nonzero;stroke:none"
             d="m 0,0 0,-41.025 -5.905,0 0.598,-2.084 7.39,0 L 2.083,0 0,0 Z" /></g><g
           transform="translate(231.3125,73.1016)"
           id="g3480"><path
             id="path3482"
             style="fill:#636466;fill-opacity:1;fill-rule:nonzero;stroke:none"
             d="m 0,0 0,-18.845 -5.307,0 0,-2.084 7.39,0 0,13.687 L 0,0 Z" /></g><g
           transform="translate(263.5742,70.0928)"
           id="g3484"><path
             id="path3486"
             style="fill:#636466;fill-opacity:1;fill-rule:nonzero;stroke:none"
             d="m 0,0 6.107,0 0,2.084 -8.19,0 c -0.722,0 -1.394,0.181 -1.998,0.478 C -3.342,1.047 -1.804,0 0,0" /></g><g
           transform="translate(266.4063,67.3223)"
           id="g3488"><path
             id="path3490"
             style="fill:#636466;fill-opacity:1;fill-rule:nonzero;stroke:none"
             d="m 0,0 -2.083,-0.485 0,-5.129 2.083,0 L 0,0 Z" /></g><g
           transform="translate(276.6523,94.7939)"
           id="g3492"><path
             id="path3494"
             style="fill:#636466;fill-opacity:1;fill-rule:nonzero;stroke:none"
             d="m 0,0 c 0.298,-0.602 0.48,-1.27 0.48,-1.986 l 0,-8.744 -5.368,-1.243 0,-2.565 7.451,1.725 0,8.744 C 2.564,-2.275 1.496,-0.745 0,0" /></g><g
           transform="translate(276.6523,76.9961)"
           id="g3496"><path
             id="path3498"
             style="fill:#636466;fill-opacity:1;fill-rule:nonzero;stroke:none"
             d="m 0,0 c 0.298,-0.602 0.48,-1.27 0.48,-1.985 l 0,-16.197 c 0,-2.463 -2.094,-4.557 -4.557,-4.557 l -11.085,0 c -0.717,0 -1.385,0.184 -1.987,0.479 0.744,-1.496 2.274,-2.563 4.07,-2.563 l 11.085,0 c 2.463,0 4.557,2.094 4.557,4.557 l 0,16.197 C 2.564,-2.274 1.497,-0.744 0,0" /></g><g
           transform="translate(264.3232,89.9761)"
           id="g3500"><path
             id="path3502"
             style="fill:#636466;fill-opacity:1;fill-rule:nonzero;stroke:none"
             d="m 0,0 0,-10.408 2.083,0 0,8.324 3.276,0 L 5.359,0 0,0 Z" /></g><g
           transform="translate(298.0137,72.1768)"
           id="g3504"><path
             id="path3506"
             style="fill:#636466;fill-opacity:1;fill-rule:nonzero;stroke:none"
             d="m 0,0 -0.679,0 0,-17.92 -5.306,0 0,-2.084 7.389,0 0,15.523 L 0,0 Z" /></g><g
           transform="translate(313.1514,95.2817)"
           id="g3508"><path
             id="path3510"
             style="fill:#636466;fill-opacity:1;fill-rule:nonzero;stroke:none"
             d="m 0,0 -2.752,0 -6.228,-19.41 6.897,-21.615 -6.006,0 0.577,-1.838 0.061,-0.246 7.451,0 -6.897,21.615 L 0,0 Z" /></g><g
           transform="translate(330.5313,95.2817)"
           id="g3512"><path
             id="path3514"
             style="fill:#636466;fill-opacity:1;fill-rule:nonzero;stroke:none"
             d="m 0,0 0,-41.025 -5.306,0 0,-2.084 7.389,0 L 2.083,0 0,0 Z" /></g><g
           transform="translate(167.8945,29.2012)"
           id="g3516"><path
             id="path3518"
             style="fill:#ffffff;fill-opacity:1;fill-rule:nonzero;stroke:none"
             d="m 0,0 1.409,0 c 5.429,-0.277 9.686,-1.728 12.393,-4.723 2.738,2.987 6.994,4.457 12.455,4.723 l 1.349,0 c 12.107,-0.822 17.629,-9.495 27.302,-13.189 1.418,-0.541 3.219,-1.151 4.785,-0.983 2.476,0.271 4.06,2.781 3.742,5.584 -0.342,3.016 -3.276,5.609 -6.564,4.172 -0.483,-0.211 -0.841,-0.508 -1.165,-0.797 -0.254,-0.226 -0.534,-0.826 -1.166,-0.613 -0.599,0.496 0.044,1.226 0.307,1.654 1.133,1.856 2.909,3.234 6.074,3.008 5.631,-0.404 10.675,-5.338 9.814,-12.822 -1.919,-11.209 -12.108,-14.149 -24.172,-15.215 l -3.926,0 c -12.529,0.744 -21.43,5.113 -28.773,11.043 -7.465,-5.85 -16.291,-10.334 -28.896,-11.043 l -3.865,0 c -12.16,1.072 -22.445,4.016 -24.233,15.461 -0.676,8.158 4.185,12.172 9.816,12.576 3.127,0.225 5.022,-1.147 6.135,-3.008 0.278,-0.463 0.803,-1.166 0.307,-1.717 -0.609,-0.108 -0.908,0.369 -1.165,0.614 -0.699,0.664 -1.494,1.179 -2.822,1.228 -3.862,0.139 -6.077,-4.154 -4.54,-7.608 0.525,-1.181 1.797,-2.364 3.374,-2.517 1.568,-0.149 3.361,0.459 4.786,0.983 1.481,0.544 2.745,1.245 3.865,1.901 C -16.006,-6.967 -10.262,-0.916 0,0" /></g><g
           transform="translate(361.6572,70.1104)"
           id="g3520"><path
             id="path3522"
             style="fill:#636466;fill-opacity:1;fill-rule:nonzero;stroke:none"
             d="M 0,0 5.716,5.717 7.8,3.634 2.084,-2.084 0,0 Z" /></g><g
           transform="translate(9.6709,70.0957)"
           id="g3524"><path
             id="path3526"
             style="fill:#636466;fill-opacity:1;fill-rule:nonzero;stroke:none"
             d="M 0,0 5.717,5.717 7.801,3.633 2.084,-2.084 0,0 Z" /></g><path
           id="path3528"
           style="fill:#ffffff;fill-opacity:1;fill-rule:nonzero;stroke:none"
           d="m 48.194,76.136 -5.358,0 0,-10.469 5.358,0 0,10.469 z m 0,17.798 -5.358,0 0,-10.408 5.358,0 0,10.408 z m 7.452,-9.853 c 0,-1.416 -0.616,-2.648 -1.663,-3.511 0.924,-0.985 1.663,-2.094 1.663,-3.694 l 0,-14.103 c 0,-2.462 -2.094,-4.557 -4.558,-4.557 l -15.642,0 0,43.108 15.643,0 c 2.464,0 4.557,-2.032 4.557,-4.558 l 0,-12.685 z" /><path
           id="path3530"
           style="fill:#ffffff;fill-opacity:1;fill-rule:nonzero;stroke:none"
           d="m 81.205,93.934 -5.357,0 0,-28.267 5.357,0 0,28.267 z m 2.896,7.39 c 2.462,0 4.556,-2.032 4.556,-4.558 l 0,-33.995 c 0,-2.462 -2.094,-4.556 -4.556,-4.556 l -11.085,0 c -2.526,0 -4.559,2.094 -4.559,4.556 l 0,33.995 c 0,2.525 2.032,4.558 4.559,4.558 l 11.085,0 z" /><path
           id="path3532"
           style="fill:#ffffff;fill-opacity:1;fill-rule:nonzero;stroke:none"
           d="m 114.217,93.934 -5.358,0 0,-10.408 5.358,0 0,10.408 z m 0.491,-35.718 -3.018,17.92 -2.833,0 0,-17.92 -7.389,0 0,43.108 15.642,0 c 2.463,0 4.495,-2.032 4.495,-4.558 l 0,-16.135 c 0,-1.725 -0.985,-3.325 -2.585,-4.064 l 3.079,-18.351 -7.391,0 z" /><path
           id="path3534"
           style="fill:#ffffff;fill-opacity:1;fill-rule:nonzero;stroke:none"
           d="m 146.243,93.934 -5.357,0 0,-28.267 5.357,0 0,28.267 z m 2.896,7.39 c 2.463,0 4.556,-2.032 4.556,-4.558 l 0,-33.995 c 0,-2.462 -2.093,-4.556 -4.556,-4.556 l -11.086,0 c -2.525,0 -4.558,2.094 -4.558,4.556 l 0,33.995 c 0,2.525 2.032,4.558 4.558,4.558 l 11.086,0 z" /><path
           id="path3536"
           style="fill:#ffffff;fill-opacity:1;fill-rule:nonzero;stroke:none"
           d="m 179.254,93.934 -5.357,0 0,-28.267 5.357,0 0,28.267 z m 2.894,7.39 c 2.463,0 4.557,-2.032 4.557,-4.558 l 0,-33.995 c 0,-2.462 -2.094,-4.556 -4.557,-4.556 l -15.642,0 0,43.109 15.642,0 z" /><path
           id="path3538"
           style="fill:#ffffff;fill-opacity:1;fill-rule:nonzero;stroke:none"
           d="m 199.888,101.324 7.39,0 0,-43.108 -7.39,0 0,43.108 z" /><g
           transform="translate(240.1631,101.3237)"
           id="g3540"><path
             id="path3542"
             style="fill:#ffffff;fill-opacity:1;fill-rule:nonzero;stroke:none"
             d="m 0,0 0,-43.108 -7.39,0 -5.42,18.843 0,-18.843 -7.39,0 0,43.108 7.328,0 5.42,-17.675 L -7.452,0 0,0 Z" /></g><g
           transform="translate(268.6172,83.5259)"
           id="g3544"><path
             id="path3546"
             style="fill:#ffffff;fill-opacity:1;fill-rule:nonzero;stroke:none"
             d="m 0,0 c 2.463,0 4.558,-2.032 4.558,-4.557 l 0,-16.197 c 0,-2.463 -2.095,-4.557 -4.558,-4.557 l -11.085,0 c -2.524,0 -4.558,2.094 -4.558,4.557 l 0,8.867 7.39,1.724 0,-7.696 5.358,0 0,10.469 -8.19,0 c -2.524,0 -4.558,2.033 -4.558,4.558 l 0,16.072 c 0,2.525 2.032,4.558 4.558,4.558 l 11.085,0 c 2.463,0 4.558,-2.032 4.558,-4.558 l 0,-8.744 -7.452,-1.725 0,7.637 -5.358,0 L -8.252,0 0,0 Z" /></g><g
           transform="translate(300.2119,79.8311)"
           id="g3548"><path
             id="path3550"
             style="fill:#ffffff;fill-opacity:1;fill-rule:nonzero;stroke:none"
             d="m 0,0 6.897,-21.615 -7.451,0 -0.061,0.246 -5.543,17.674 -0.679,0 0,-17.92 -7.39,0 0,43.108 7.39,0 0,-17.798 0.556,0 5.666,17.798 7.512,0 L 0,0 Z" /></g><path
           id="path3552"
           style="fill:#ffffff;fill-opacity:1;fill-rule:nonzero;stroke:none"
           d="m 319.184,101.324 7.39,0 0,-43.108 -7.39,0 0,43.108 z" /></g></g></g></svg>